<svg width="25" height="25" viewBox="0 0 25 25" fill="none" xmlns="http://www.w3.org/2000/svg">
<path d="M10.4167 23.9583C10.4167 24.5344 9.95104 25 9.375 25H5.20833C2.33646 25 0 22.6635 0 19.7917V5.20833C0 2.33646 2.33646 0 5.20833 0H13.5417C16.4135 0 18.75 2.33646 18.75 5.20833V7.29167C18.75 7.86771 18.2844 8.33333 17.7083 8.33333C17.1323 8.33333 16.6667 7.86771 16.6667 7.29167V5.20833C16.6667 3.48542 15.2646 2.08333 13.5417 2.08333H5.20833C3.48542 2.08333 2.08333 3.48542 2.08333 5.20833V19.7917C2.08333 21.5146 3.48542 22.9167 5.20833 22.9167H9.375C9.95104 22.9167 10.4167 23.3823 10.4167 23.9583ZM14.5833 6.25C14.5833 5.67396 14.1177 5.20833 13.5417 5.20833H5.20833C4.63229 5.20833 4.16667 5.67396 4.16667 6.25C4.16667 6.82604 4.63229 7.29167 5.20833 7.29167H13.5417C14.1177 7.29167 14.5833 6.82604 14.5833 6.25ZM10.4167 11.4583C10.4167 10.8823 9.95104 10.4167 9.375 10.4167H5.20833C4.63229 10.4167 4.16667 10.8823 4.16667 11.4583C4.16667 12.0344 4.63229 12.5 5.20833 12.5H9.375C9.95104 12.5 10.4167 12.0344 10.4167 11.4583ZM5.20833 15.625C4.63229 15.625 4.16667 16.0906 4.16667 16.6667C4.16667 17.2427 4.63229 17.7083 5.20833 17.7083H7.29167C7.86771 17.7083 8.33333 17.2427 8.33333 16.6667C8.33333 16.0906 7.86771 15.625 7.29167 15.625H5.20833ZM25 17.7083C25 21.7281 21.7281 25 17.7083 25C13.6885 25 10.4167 21.7281 10.4167 17.7083C10.4167 13.6885 13.6885 10.4167 17.7083 10.4167C21.7281 10.4167 25 13.6885 25 17.7083ZM22.9167 17.7083C22.9167 14.8365 20.5802 12.5 17.7083 12.5C14.8365 12.5 12.5 14.8365 12.5 17.7083C12.5 20.5802 14.8365 22.9167 17.7083 22.9167C20.5802 22.9167 22.9167 20.5802 22.9167 17.7083ZM19.5917 16.4156L17.276 18.6385C17.126 18.7854 16.8812 18.7885 16.7323 18.6406L15.5542 17.4865C15.1417 17.0823 14.4833 17.0885 14.0812 17.501C13.6781 17.9125 13.6844 18.5708 14.0958 18.974L15.275 20.1292C15.7542 20.5969 16.3812 20.8312 17.0073 20.8312C17.6333 20.8312 18.2583 20.5969 18.7292 20.1323L21.0344 17.9198C21.449 17.5208 21.4625 16.8615 21.0646 16.4469C20.6656 16.0302 20.0052 16.0187 19.5917 16.4167V16.4156Z" fill="black"/>
</svg>
