<svg width="24" height="24" viewBox="0 0 24 24" fill="none" xmlns="http://www.w3.org/2000/svg">
<path d="M12 2C10.0222 2 8.08879 2.58649 6.4443 3.6853C4.79981 4.78412 3.51809 6.3459 2.76121 8.17316C2.00433 10.0004 1.8063 12.0111 2.19215 13.9509C2.578 15.8907 3.53041 17.6725 4.92894 19.0711C6.32746 20.4696 8.10929 21.422 10.0491 21.8078C11.9889 22.1937 13.9996 21.9957 15.8268 21.2388C17.6541 20.4819 19.2159 19.2002 20.3147 17.5557C21.4135 15.9112 22 13.9778 22 12C21.9971 9.34871 20.9426 6.80684 19.0679 4.9321C17.1932 3.05736 14.6513 2.00287 12 2ZM12 20.3333C10.3518 20.3333 8.74066 19.8446 7.37025 18.9289C5.99984 18.0132 4.93174 16.7117 4.30101 15.189C3.67028 13.6663 3.50525 11.9908 3.82679 10.3742C4.14834 8.75774 4.94201 7.27288 6.10745 6.10744C7.27288 4.94201 8.75774 4.14833 10.3743 3.82679C11.9908 3.50525 13.6663 3.67027 15.189 4.301C16.7117 4.93173 18.0132 5.99984 18.9289 7.37025C19.8446 8.74066 20.3333 10.3518 20.3333 12C20.3309 14.2094 19.4522 16.3276 17.8899 17.8899C16.3276 19.4522 14.2094 20.3309 12 20.3333Z" fill="#9FA5B0"/>
<path d="M12 7C11.779 7 11.567 7.0878 11.4107 7.24408C11.2545 7.40036 11.1667 7.61232 11.1667 7.83333V11.4375L8.3575 13.1975C8.16964 13.3149 8.03609 13.502 7.98624 13.7179C7.93638 13.9337 7.97431 14.1605 8.09167 14.3483C8.20902 14.5362 8.3962 14.6697 8.61203 14.7196C8.82785 14.7694 9.05464 14.7315 9.2425 14.6142L12.4425 12.6142C12.5634 12.5384 12.6628 12.4329 12.7313 12.3077C12.7997 12.1825 12.8348 12.0418 12.8333 11.8992V7.83333C12.8333 7.61232 12.7455 7.40036 12.5893 7.24408C12.433 7.0878 12.221 7 12 7Z" fill="#9FA5B0"/>
</svg>
