<svg width="28" height="29" viewBox="0 0 28 29" fill="none" xmlns="http://www.w3.org/2000/svg">
<path d="M21 3.5H7C5.67441 3.50159 4.40356 4.02888 3.46622 4.96622C2.52888 5.90356 2.00159 7.17441 2 8.5L2 20.5C2.00159 21.8256 2.52888 23.0964 3.46622 24.0338C4.40356 24.9711 5.67441 25.4984 7 25.5H21C22.3256 25.4984 23.5964 24.9711 24.5338 24.0338C25.4711 23.0964 25.9984 21.8256 26 20.5V8.5C25.9984 7.17441 25.4711 5.90356 24.5338 4.96622C23.5964 4.02888 22.3256 3.50159 21 3.5ZM7 5.5H21C21.5988 5.50118 22.1835 5.68151 22.679 6.0178C23.1744 6.35409 23.5579 6.83095 23.78 7.387L16.122 15.046C15.5584 15.6073 14.7954 15.9225 14 15.9225C13.2046 15.9225 12.4416 15.6073 11.878 15.046L4.22 7.387C4.44215 6.83095 4.82561 6.35409 5.32105 6.0178C5.81648 5.68151 6.40121 5.50118 7 5.5ZM21 23.5H7C6.20435 23.5 5.44129 23.1839 4.87868 22.6213C4.31607 22.0587 4 21.2956 4 20.5V10L10.464 16.46C11.4026 17.3963 12.6743 17.922 14 17.922C15.3257 17.922 16.5974 17.3963 17.536 16.46L24 10V20.5C24 21.2956 23.6839 22.0587 23.1213 22.6213C22.5587 23.1839 21.7956 23.5 21 23.5Z" fill="black"/>
</svg>
