<svg width="28" height="28" viewBox="0 0 28 28" fill="none" xmlns="http://www.w3.org/2000/svg">
<path d="M14 7.50155C13.1345 7.50155 12.2885 7.75568 11.5689 8.23179C10.8492 8.7079 10.2884 9.38462 9.95716 10.1764C9.62596 10.9681 9.5393 11.8393 9.70814 12.6798C9.87699 13.5203 10.2938 14.2924 10.9057 14.8984C11.5177 15.5044 12.2974 15.917 13.1463 16.0842C13.9951 16.2514 14.875 16.1656 15.6746 15.8376C16.4742 15.5097 17.1576 14.9543 17.6384 14.2418C18.1193 13.5292 18.3759 12.6915 18.3759 11.8345C18.3759 10.6853 17.9149 9.58324 17.0942 8.77065C16.2736 7.95806 15.1606 7.50155 14 7.50155ZM14 14.001C13.5673 14.001 13.1442 13.8739 12.7844 13.6359C12.4246 13.3978 12.1442 13.0595 11.9786 12.6636C11.813 12.2677 11.7696 11.8321 11.8541 11.4119C11.9385 10.9916 12.1469 10.6056 12.4529 10.3026C12.7589 9.99959 13.1487 9.79326 13.5731 9.70966C13.9976 9.62607 14.4375 9.66897 14.8373 9.83295C15.2371 9.99692 15.5788 10.2746 15.8192 10.6309C16.0596 10.9872 16.188 11.406 16.188 11.8345C16.188 12.4091 15.9574 12.9602 15.5471 13.3664C15.1368 13.7727 14.5803 14.001 14 14.001Z" fill="black"/>
<path d="M14 26.9999C13.0788 27.0046 12.1699 26.7907 11.3493 26.376C10.5288 25.9614 9.82054 25.3582 9.28384 24.6168C5.11467 18.9222 3 14.6412 3 11.892C3 9.00325 4.15893 6.23283 6.22183 4.19019C8.28473 2.14754 11.0826 1 14 1C16.9174 1 19.7153 2.14754 21.7782 4.19019C23.8411 6.23283 25 9.00325 25 11.892C25 14.6412 22.8853 18.9222 18.7162 24.6168C18.1795 25.3582 17.4712 25.9614 16.6506 26.376C15.8301 26.7907 14.9212 27.0046 14 26.9999ZM14 3.36471C11.7162 3.36729 9.52672 4.26676 7.91184 5.86577C6.29697 7.46479 5.38858 9.63279 5.38598 11.8941C5.38598 14.0715 7.45689 18.0979 11.2158 23.2313C11.5349 23.6666 11.9536 24.0208 12.4375 24.265C12.9214 24.5093 13.4568 24.6366 14 24.6366C14.5432 24.6366 15.0786 24.5093 15.5625 24.265C16.0464 24.0208 16.4651 23.6666 16.7842 23.2313C20.5431 18.0979 22.614 14.0715 22.614 11.8941C22.6114 9.63279 21.703 7.46479 20.0882 5.86577C18.4733 4.26676 16.2838 3.36729 14 3.36471Z" fill="black"/>
</svg>
