<svg width="28" height="28" viewBox="0 0 28 28" fill="none" xmlns="http://www.w3.org/2000/svg">
<path d="M3.75347 4.74123L4.75956 3.86942C5.91895 2.71019 7.79699 2.71019 8.95638 3.86942C8.98513 3.89816 10.7578 6.20702 10.7578 6.20702C11.8501 7.35666 11.8501 9.16734 10.7578 10.3074L9.64627 11.7061C11.0452 14.8772 13.2203 17.0615 16.2865 18.3645L17.6854 17.2436C18.8256 16.1418 20.6462 16.1418 21.7864 17.2436C21.7864 17.2436 24.0956 19.0159 24.1244 19.0447C25.2838 20.2039 25.2838 22.0816 24.1723 23.193L23.2141 24.2947C22.1122 25.3964 20.627 26 19.0173 26C11.6968 26 2 16.2951 2 8.98532C2 7.3854 2.60365 5.89087 3.75347 4.75081V4.74123ZM19.0173 24.0744C20.1096 24.0744 21.1157 23.672 21.8056 22.9726L22.7638 21.8709C23.1566 21.4781 23.1758 20.8362 22.8021 20.4242C22.8021 20.4242 20.512 18.6615 20.4833 18.6327C20.0904 18.2399 19.4005 18.2399 18.9981 18.6327C18.9694 18.6615 17.0434 20.2039 17.0434 20.2039C16.7751 20.4147 16.4206 20.4721 16.1044 20.3476C12.1375 18.8339 9.29175 15.9981 7.65326 11.9073C7.5287 11.5912 7.5766 11.2271 7.79699 10.9493C7.79699 10.9493 9.33966 9.01406 9.35882 8.9949C9.77084 8.58294 9.77084 7.9219 9.35882 7.50994C9.33008 7.4812 7.56702 5.1915 7.56702 5.1915C7.15501 4.81787 6.51303 4.82745 6.07226 5.26815L5.06618 6.13996C4.32838 6.87764 3.91636 7.88358 3.91636 8.97574C3.91636 15.6437 13.2778 24.0744 19.0173 24.0744Z" fill="black"/>
</svg>
