<svg width="55" height="55" viewBox="0 0 55 55" fill="none" xmlns="http://www.w3.org/2000/svg">
<path d="M45.5719 17.4358C44.4645 16.6992 43.2079 16.2073 41.8872 15.9934C40.5665 15.7795 39.2126 15.8486 37.9171 16.196L30.6938 18.1315L30.3266 14.3271C30.1983 12.9871 29.586 11.7409 28.6014 10.8157C27.6168 9.89058 26.3255 9.34813 24.963 9.28732C23.6005 9.22651 22.2576 9.6514 21.1793 10.4845C20.101 11.3176 19.3591 12.5034 19.0889 13.8256L17.4769 21.6729L12.566 22.9888C10.1664 23.6348 8.11726 25.1922 6.86803 27.3192C5.6188 29.4463 5.27151 31.9695 5.90233 34.3352L8.29255 43.2557C8.92912 45.6199 10.4915 47.6314 12.6369 48.8489C14.7823 50.0664 17.3356 50.3905 19.7367 49.7501L43.8202 43.297C45.9971 42.7043 47.8919 41.3614 49.16 39.5126C50.428 37.6638 50.9851 35.432 50.7298 33.2232L49.6162 23.9607C49.4569 22.6471 49.0134 21.3847 48.3156 20.259C47.6179 19.1333 46.6822 18.1705 45.5719 17.4358ZM11.9141 42.2853L9.5239 33.3648C9.14355 31.9453 9.3511 30.4306 10.1009 29.1539C10.8507 27.8772 12.0814 26.943 13.5221 26.557L17.1437 25.5866L22.4022 45.2116L18.7806 46.182C17.3399 46.568 15.807 46.3743 14.5193 45.6436C13.2316 44.9128 12.2945 43.7048 11.9141 42.2853ZM45.8875 24.4225L46.9993 33.6855C47.1537 35.0094 46.8212 36.3475 46.0623 37.4566C45.3035 38.5657 44.1686 39.3719 42.8641 39.7288L26.0238 44.2412L20.6381 24.1416C20.7695 23.9494 20.8634 23.7348 20.915 23.5091L22.7587 14.5345C22.8366 14.2305 22.9862 13.9486 23.1955 13.7118C23.4047 13.4751 23.6674 13.2903 23.9622 13.1727C24.2569 13.0551 24.5752 13.008 24.8908 13.0353C25.2065 13.0626 25.5105 13.1635 25.7779 13.3297C26.0104 13.4859 26.2048 13.691 26.3471 13.9305C26.4895 14.17 26.5763 14.438 26.6014 14.7153L27.175 20.6806C27.2014 20.9469 27.2861 21.204 27.4233 21.434C27.5605 21.664 27.7469 21.8615 27.9697 22.0127C28.1924 22.164 28.4461 22.2655 28.7132 22.3101C28.9803 22.3547 29.2545 22.3415 29.5168 22.2712L38.8732 19.7642C39.6507 19.5557 40.4633 19.5142 41.2559 19.6423C42.0486 19.7704 42.8029 20.0652 43.4679 20.5069C44.1328 20.9485 44.6929 21.5266 45.1104 22.2021C45.5278 22.8776 45.7928 23.6348 45.8875 24.4225Z" fill="#6A90FD"/>
</svg>
