<svg width="24" height="24" viewBox="0 0 24 24" fill="none" xmlns="http://www.w3.org/2000/svg">
<path d="M17.8333 2H6.16667C3.86667 2 2 3.86667 2 6.16667V17.8333C2 20.1333 3.86667 22 6.16667 22H17.8333C20.1333 22 22 20.1333 22 17.8333V6.16667C22 3.86667 20.1333 2 17.8333 2ZM20.3333 17.8333C20.3333 19.2083 19.2083 20.3333 17.8333 20.3333H6.16667C4.79167 20.3333 3.66667 19.2083 3.66667 17.8333V6.16667C3.66667 4.79167 4.79167 3.66667 6.16667 3.66667H17.8333C19.2083 3.66667 20.3333 4.79167 20.3333 6.16667V17.8333ZM6.16667 10.3333C6.16667 9.875 6.54167 9.5 7 9.5H14.5C14.9583 9.5 15.3333 9.875 15.3333 10.3333C15.3333 10.7917 14.9583 11.1667 14.5 11.1667H7C6.54167 11.1667 6.16667 10.7917 6.16667 10.3333ZM6.16667 7C6.16667 6.54167 6.54167 6.16667 7 6.16667H12C12.4583 6.16667 12.8333 6.54167 12.8333 7C12.8333 7.45833 12.4583 7.83333 12 7.83333H7C6.54167 7.83333 6.16667 7.45833 6.16667 7ZM17.8333 13.6667C17.8333 14.125 17.4583 14.5 17 14.5H7C6.54167 14.5 6.16667 14.125 6.16667 13.6667C6.16667 13.2083 6.54167 12.8333 7 12.8333H17C17.4583 12.8333 17.8333 13.2083 17.8333 13.6667ZM10.3333 17C10.3333 17.4583 9.95833 17.8333 9.5 17.8333H7C6.54167 17.8333 6.16667 17.4583 6.16667 17C6.16667 16.5417 6.54167 16.1667 7 16.1667H9.5C9.95833 16.1667 10.3333 16.5417 10.3333 17Z" fill="#9FA5B0"/>
</svg>
