<svg width="28" height="28" viewBox="0 0 28 28" fill="none" xmlns="http://www.w3.org/2000/svg">
<g clip-path="url(#clip0_348_1582)">
<path d="M13.9514 28.0102L13.1381 27.3131C12.017 26.3744 2.22754 17.9199 2.22754 11.7356C2.22754 5.26068 7.4765 0.0117188 13.9514 0.0117188C20.4263 0.0117188 25.6752 5.26068 25.6752 11.7356C25.6752 17.9199 15.8858 26.3744 14.7693 27.3178L13.9514 28.0102ZM13.9514 2.54676C8.87896 2.5525 4.76838 6.66309 4.76263 11.7355C4.76263 15.6206 10.7855 21.827 13.9514 24.6676C17.1174 21.8259 23.1402 15.6159 23.1402 11.7355C23.1344 6.66309 19.0239 2.55255 13.9514 2.54676Z" fill="#6A90FD"/>
<path d="M13.9519 16.3833C11.3853 16.3833 9.30469 14.3027 9.30469 11.7361C9.30469 9.16951 11.3853 7.08887 13.9519 7.08887C16.5185 7.08887 18.5992 9.16951 18.5992 11.7361C18.5992 14.3027 16.5186 16.3833 13.9519 16.3833ZM13.9519 9.41243C12.6686 9.41243 11.6283 10.4528 11.6283 11.736C11.6283 13.0193 12.6686 14.0597 13.9519 14.0597C15.2352 14.0597 16.2755 13.0193 16.2755 11.736C16.2755 10.4528 15.2353 9.41243 13.9519 9.41243Z" fill="#6A90FD"/>
</g>
<defs>
<clipPath id="clip0_348_1582">
<rect width="28" height="28" fill="white"/>
</clipPath>
</defs>
</svg>
