<svg width="46" height="46" viewBox="0 0 46 46" fill="none" xmlns="http://www.w3.org/2000/svg">
<g clip-path="url(#clip0_158_310)">
<path d="M22.9198 46.0154L21.5837 44.8702C19.7418 43.3279 3.65918 29.4383 3.65918 19.2784C3.65918 8.64112 12.2825 0.0178223 22.9198 0.0178223C33.5571 0.0178223 42.1804 8.64112 42.1804 19.2784C42.1804 29.4384 26.0977 43.328 24.2635 44.8778L22.9198 46.0154ZM22.9198 4.18253C14.5865 4.19196 7.83341 10.9451 7.82398 19.2783C7.82398 25.661 17.7186 35.8572 22.9198 40.524C28.121 35.8553 38.0156 25.6533 38.0156 19.2783C38.0062 10.9451 31.2532 4.19205 22.9198 4.18253Z" fill="#6A90FD"/>
<path d="M22.9199 26.9132C18.7034 26.9132 15.2852 23.495 15.2852 19.2784C15.2852 15.0619 18.7034 11.6437 22.9199 11.6437C27.1364 11.6437 30.5546 15.0619 30.5546 19.2784C30.5546 23.495 27.1365 26.9132 22.9199 26.9132ZM22.9199 15.461C20.8116 15.461 19.1025 17.1701 19.1025 19.2783C19.1025 21.3866 20.8116 23.0957 22.9199 23.0957C25.0282 23.0957 26.7373 21.3866 26.7373 19.2783C26.7373 17.1701 25.0283 15.461 22.9199 15.461Z" fill="#6A90FD"/>
</g>
<defs>
<clipPath id="clip0_158_310">
<rect width="46" height="46" fill="white"/>
</clipPath>
</defs>
</svg>
