<svg width="55" height="55" viewBox="0 0 55 55" fill="none" xmlns="http://www.w3.org/2000/svg">
<path d="M39.0652 20.741C39.0652 22.0156 38.5589 23.238 37.6576 24.1393C36.7563 25.0406 35.5338 25.547 34.2592 25.547C32.9846 25.547 31.7621 25.0406 30.8608 24.1393C29.9595 23.238 29.4532 22.0156 29.4532 20.741C29.4532 19.4663 29.9595 18.2439 30.8608 17.3426C31.7621 16.4413 32.9846 15.9349 34.2592 15.9349C35.5338 15.9349 36.7563 16.4413 37.6576 17.3426C38.5589 18.2439 39.0652 19.4663 39.0652 20.741ZM39.0537 33.9403C38.9481 36.9947 38.1855 39.9905 36.8179 42.7238C35.5578 45.1067 33.6658 47.0966 31.3493 48.4751C29.0328 49.8536 26.3814 50.5675 23.686 50.5384H21.7636V39.9651C21.755 38.1833 21.0433 36.4768 19.7834 35.2169C18.5234 33.9569 16.817 33.2452 15.0351 33.2367H4.46191V31.3142C4.43281 28.6188 5.14666 25.9674 6.52515 23.6509C7.90364 21.3344 9.89352 19.4423 12.2765 18.1822C15.0097 16.8146 18.0055 16.052 21.06 15.9465C23.8606 12.3289 27.4573 9.4055 31.5707 7.4031C35.6842 5.40071 40.2037 4.37323 44.7786 4.40043C45.5398 4.39562 46.2946 4.54112 46.9995 4.82858C47.7044 5.11605 48.3456 5.53982 48.8864 6.07561C49.4272 6.6114 49.8569 7.24867 50.1509 7.95087C50.4449 8.65308 50.5974 9.40641 50.5996 10.1677C50.6322 14.7511 49.6074 19.2804 47.6049 23.4034C45.6025 27.5264 42.6762 31.1321 39.0537 33.9403ZM8.4682 29.3918H12.8167C14.2443 26.2121 15.9214 23.1504 17.8322 20.2354C16.505 20.5441 15.219 21.0087 14.0009 21.6195C12.5359 22.3931 11.2724 23.499 10.3117 24.8487C9.3509 26.1984 8.71956 27.7543 8.4682 29.3918ZM34.7648 37.168C31.8497 39.0788 28.7881 40.7559 25.6084 42.1836V46.5321C27.2459 46.2807 28.8018 45.6494 30.1515 44.6886C31.5011 43.7278 32.6071 42.4644 33.3807 40.9994C33.9914 39.7812 34.456 38.4952 34.7648 37.168ZM46.7548 10.1138C46.7408 9.61338 46.5321 9.13812 46.1731 8.78916C45.8141 8.4402 45.3331 8.24506 44.8324 8.24526C34.9128 8.52785 28.2036 12.3285 21.729 21.36C19.9222 23.9614 18.3333 26.7076 16.9787 29.5706C19.0778 29.9616 21.0094 30.9789 22.5192 32.4887C24.029 33.9985 25.0463 35.9301 25.4373 38.0292C28.3003 36.6746 31.0465 35.0857 33.6479 33.2789C42.6716 26.7966 46.4722 20.0873 46.7548 10.1138ZM16.2309 38.7713C17.3051 39.8565 17.9076 41.3218 17.9076 42.8487C17.9076 44.3757 17.3051 45.8409 16.2309 46.9262C14.4873 48.6679 9.26792 49.7425 7.10329 50.1251L4.40039 50.5999L4.87522 47.897C5.25971 45.7323 6.33241 40.513 8.07411 38.7694C9.17324 37.721 10.6339 37.1363 12.1529 37.1366C13.6718 37.137 15.1322 37.7224 16.2309 38.7713ZM14.0739 42.8487C14.0746 42.5962 14.0252 42.346 13.9285 42.1127C13.8318 41.8794 13.6898 41.6676 13.5107 41.4896C13.1502 41.1292 12.6613 40.9267 12.1515 40.9267C11.6418 40.9267 11.1529 41.1292 10.7924 41.4896C10.0595 42.8127 9.54469 44.2453 9.26792 45.7323C10.7555 45.4544 12.1887 44.939 13.5126 44.206C13.6911 44.028 13.8327 43.8164 13.929 43.5835C14.0254 43.3505 14.0746 43.1008 14.0739 42.8487Z" fill="#FF6535"/>
</svg>
