<svg width="55" height="55" viewBox="0 0 55 55" fill="none" xmlns="http://www.w3.org/2000/svg">
<path d="M20.1669 27.5C26.2335 27.5 31.167 22.5665 31.167 16.5C31.167 10.4335 26.2335 5.5 20.1669 5.5C14.1003 5.5 9.16672 10.4335 9.16672 16.5C9.16672 22.5665 14.1003 27.5 20.1669 27.5ZM20.1669 9.16667C24.2113 9.16667 27.5003 12.4557 27.5003 16.5C27.5003 20.5443 24.2113 23.8333 20.1669 23.8333C16.1225 23.8333 12.8334 20.5443 12.8334 16.5C12.8334 12.4557 16.1225 9.16667 20.1669 9.16667ZM23.8336 33C23.8336 34.012 23.0123 34.8333 22.0002 34.8333C14.9235 34.8333 9.16672 40.59 9.16672 47.6667C9.16672 48.6787 8.34538 49.5 7.33336 49.5C6.32135 49.5 5.5 48.6787 5.5 47.6667C5.5 38.5697 12.9031 31.1667 22.0002 31.1667C23.0123 31.1667 23.8336 31.988 23.8336 33ZM48.848 38.0453L44.5102 41.5782L46.3051 47.0415C46.5508 47.7803 46.3014 48.5943 45.6836 49.0692C45.0658 49.544 44.2151 49.577 43.5642 49.1535L38.5152 45.8663L33.5504 49.1883C33.2424 49.3955 32.8867 49.4982 32.5311 49.4982C32.1442 49.4982 31.7574 49.3753 31.4311 49.1315C30.8077 48.6658 30.5492 47.8555 30.782 47.113L32.5072 41.5837L28.1493 38.038C27.5627 37.5412 27.3482 36.7308 27.614 36.0085C27.8798 35.2862 28.5655 34.8077 29.3337 34.8077H34.8356L36.7826 29.3443C37.0503 28.6275 37.736 28.1508 38.5005 28.1508C39.265 28.1508 39.9525 28.6275 40.2183 29.3443L42.1654 34.8077H47.6673C48.4373 34.8077 49.1248 35.2898 49.3888 36.0122C49.6528 36.7345 49.4365 37.5467 48.848 38.0435V38.0453Z" fill="#FF6535"/>
</svg>
