<svg width="46" height="46" viewBox="0 0 46 46" fill="none" xmlns="http://www.w3.org/2000/svg">
<g clip-path="url(#clip0_158_317)">
<path d="M23 30.6667C21.4837 30.6667 20.0014 30.217 18.7406 29.3746C17.4799 28.5322 16.4972 27.3348 15.9169 25.9339C15.3367 24.533 15.1848 22.9915 15.4806 21.5043C15.7765 20.0171 16.5066 18.6511 17.5788 17.5789C18.6511 16.5066 20.0171 15.7765 21.5043 15.4806C22.9915 15.1848 24.533 15.3367 25.9339 15.9169C27.3348 16.4972 28.5322 17.4799 29.3746 18.7406C30.217 20.0014 30.6667 21.4837 30.6667 23C30.6667 25.0333 29.8589 26.9834 28.4212 28.4212C26.9834 29.8589 25.0333 30.6667 23 30.6667ZM23 19.1667C22.2418 19.1667 21.5007 19.3915 20.8703 19.8127C20.2399 20.2339 19.7486 20.8326 19.4585 21.5331C19.1683 22.2335 19.0924 23.0043 19.2403 23.7478C19.3882 24.4914 19.7533 25.1745 20.2894 25.7106C20.8255 26.2467 21.5086 26.6118 22.2522 26.7597C22.9957 26.9076 23.7665 26.8317 24.467 26.5415C25.1674 26.2514 25.7661 25.7601 26.1873 25.1297C26.6085 24.4993 26.8333 23.7582 26.8333 23C26.8333 21.9833 26.4295 21.0083 25.7106 20.2894C24.9917 19.5705 24.0167 19.1667 23 19.1667ZM34.5 44.0833C34.5 41.0333 33.2884 38.1083 31.1317 35.9516C28.9751 33.7949 26.05 32.5833 23 32.5833C19.95 32.5833 17.0249 33.7949 14.8683 35.9516C12.7116 38.1083 11.5 41.0333 11.5 44.0833C11.5 44.5917 11.7019 45.0792 12.0614 45.4386C12.4208 45.7981 12.9083 46 13.4167 46C13.925 46 14.4125 45.7981 14.772 45.4386C15.1314 45.0792 15.3333 44.5917 15.3333 44.0833C15.3333 42.05 16.1411 40.1 17.5788 38.6622C19.0166 37.2244 20.9667 36.4167 23 36.4167C25.0333 36.4167 26.9834 37.2244 28.4212 38.6622C29.8589 40.1 30.6667 42.05 30.6667 44.0833C30.6667 44.5917 30.8686 45.0792 31.228 45.4386C31.5875 45.7981 32.075 46 32.5833 46C33.0917 46 33.5792 45.7981 33.9386 45.4386C34.2981 45.0792 34.5 44.5917 34.5 44.0833ZM34.5 15.3333C32.9837 15.3333 31.5014 14.8837 30.2406 14.0413C28.9799 13.1988 27.9972 12.0015 27.4169 10.6006C26.8367 9.19968 26.6848 7.65817 26.9806 6.17098C27.2765 4.68379 28.0066 3.31772 29.0788 2.24552C30.151 1.17332 31.5171 0.443136 33.0043 0.147316C34.4915 -0.148504 36.033 0.00332182 37.4339 0.583594C38.8348 1.16387 40.0322 2.14652 40.8746 3.4073C41.717 4.66808 42.1667 6.15035 42.1667 7.66667C42.1667 9.7 41.3589 11.65 39.9212 13.0878C38.4834 14.5256 36.5333 15.3333 34.5 15.3333ZM34.5 3.83334C33.7418 3.83334 33.0007 4.05816 32.3703 4.47937C31.7399 4.90058 31.2486 5.49927 30.9585 6.19972C30.6683 6.90017 30.5924 7.67092 30.7403 8.41452C30.8882 9.15811 31.2533 9.84114 31.7894 10.3772C32.3255 10.9133 33.0086 11.2784 33.7522 11.4263C34.4957 11.5743 35.2665 11.4983 35.967 11.2082C36.6674 10.9181 37.2661 10.4267 37.6873 9.79636C38.1085 9.16597 38.3333 8.42483 38.3333 7.66667C38.3333 6.65001 37.9295 5.67498 37.2106 4.95609C36.4917 4.2372 35.5167 3.83334 34.5 3.83334ZM46 28.75C45.997 25.7009 44.7844 22.7776 42.6284 20.6216C40.4724 18.4656 37.5491 17.253 34.5 17.25C33.9917 17.25 33.5042 17.4519 33.1447 17.8114C32.7853 18.1708 32.5833 18.6583 32.5833 19.1667C32.5833 19.675 32.7853 20.1625 33.1447 20.522C33.5042 20.8814 33.9917 21.0833 34.5 21.0833C36.5333 21.0833 38.4834 21.8911 39.9212 23.3289C41.3589 24.7666 42.1667 26.7167 42.1667 28.75C42.1667 29.2583 42.3686 29.7458 42.728 30.1053C43.0875 30.4647 43.575 30.6667 44.0833 30.6667C44.5917 30.6667 45.0792 30.4647 45.4386 30.1053C45.7981 29.7458 46 29.2583 46 28.75ZM11.5 15.3333C9.98368 15.3333 8.5014 14.8837 7.24063 14.0413C5.97985 13.1988 4.9972 12.0015 4.41692 10.6006C3.83665 9.19968 3.68483 7.65817 3.98065 6.17098C4.27647 4.68379 5.00665 3.31772 6.07885 2.24552C7.15105 1.17332 8.51712 0.443136 10.0043 0.147316C11.4915 -0.148504 13.033 0.00332182 14.4339 0.583594C15.8348 1.16387 17.0322 2.14652 17.8746 3.4073C18.717 4.66808 19.1667 6.15035 19.1667 7.66667C19.1667 9.7 18.3589 11.65 16.9212 13.0878C15.4834 14.5256 13.5333 15.3333 11.5 15.3333ZM11.5 3.83334C10.7418 3.83334 10.0007 4.05816 9.37031 4.47937C8.73993 4.90058 8.2486 5.49927 7.95846 6.19972C7.66833 6.90017 7.59241 7.67092 7.74032 8.41452C7.88823 9.15811 8.25332 9.84114 8.78942 10.3772C9.32553 10.9133 10.0086 11.2784 10.7522 11.4263C11.4957 11.5743 12.2665 11.4983 12.967 11.2082C13.6674 10.9181 14.2661 10.4267 14.6873 9.79636C15.1085 9.16597 15.3333 8.42483 15.3333 7.66667C15.3333 6.65001 14.9295 5.67498 14.2106 4.95609C13.4917 4.2372 12.5167 3.83334 11.5 3.83334ZM3.83333 28.75C3.83333 26.7167 4.64107 24.7666 6.07885 23.3289C7.51663 21.8911 9.46667 21.0833 11.5 21.0833C12.0083 21.0833 12.4958 20.8814 12.8553 20.522C13.2147 20.1625 13.4167 19.675 13.4167 19.1667C13.4167 18.6583 13.2147 18.1708 12.8553 17.8114C12.4958 17.4519 12.0083 17.25 11.5 17.25C8.45094 17.253 5.52764 18.4656 3.37163 20.6216C1.21563 22.7776 0.00304449 25.7009 0 28.75C0 29.2583 0.201934 29.7458 0.561379 30.1053C0.920823 30.4647 1.40833 30.6667 1.91667 30.6667C2.425 30.6667 2.91251 30.4647 3.27195 30.1053C3.6314 29.7458 3.83333 29.2583 3.83333 28.75Z" fill="#94BB16"/>
</g>
<defs>
<clipPath id="clip0_158_317">
<rect width="46" height="46" fill="white"/>
</clipPath>
</defs>
</svg>
