<svg width="56" height="56" viewBox="0 0 56 56" fill="none" xmlns="http://www.w3.org/2000/svg">
<path d="M38.5417 51C31.6723 51 26.0833 45.411 26.0833 38.5417C26.0833 31.6723 31.6723 26.0833 38.5417 26.0833C45.411 26.0833 51 31.6723 51 38.5417C51 45.411 45.411 51 38.5417 51ZM38.5417 29.9167C33.7864 29.9167 29.9167 33.7864 29.9167 38.5417C29.9167 43.2969 33.7864 47.1667 38.5417 47.1667C43.2969 47.1667 47.1667 43.2969 47.1667 38.5417C47.1667 33.7864 43.2969 29.9167 38.5417 29.9167ZM40.4564 42.0952L44.0713 38.5819C44.8302 37.844 44.8475 36.6308 44.1115 35.8717C43.3736 35.1147 42.1603 35.0936 41.4013 35.8334L37.775 39.3562C37.5853 39.5479 37.2728 39.5479 37.0812 39.3562L35.4022 37.7118C34.6451 36.9719 33.4338 36.9853 32.692 37.7424C31.9502 38.4995 31.9637 39.7108 32.7208 40.4526L34.3997 42.0971C35.2373 42.9174 36.3356 43.3257 37.4319 43.3257C38.5282 43.3257 39.6284 42.9136 40.4583 42.0933L40.4564 42.0952ZM22.25 28C15.9078 28 10.75 22.8422 10.75 16.5C10.75 10.1577 15.9078 5 22.25 5C28.5922 5 33.75 10.1577 33.75 16.5C33.75 22.8422 28.5922 28 22.25 28ZM22.25 8.83333C18.0218 8.83333 14.5833 12.2718 14.5833 16.5C14.5833 20.7282 18.0218 24.1667 22.25 24.1667C26.4782 24.1667 29.9167 20.7282 29.9167 16.5C29.9167 12.2718 26.4782 8.83333 22.25 8.83333ZM8.83333 49.0833C8.83333 42.329 13.8799 36.6039 20.571 35.7702C21.6213 35.6398 22.3669 34.6815 22.2366 33.6312C22.1062 32.5808 21.1364 31.8467 20.0976 31.9675C11.4898 33.0389 5 40.3989 5 49.0833C5 50.1432 5.85867 51 6.91667 51C7.97467 51 8.83333 50.1432 8.83333 49.0833Z" fill="#6A90FD"/>
</svg>
