<svg width="46" height="46" viewBox="0 0 46 46" fill="none" xmlns="http://www.w3.org/2000/svg">
<g clip-path="url(#clip0_161_55)">
<path d="M28.75 11.5C28.75 12.5599 27.8913 13.4167 26.8333 13.4167H19.1667C18.1087 13.4167 17.25 12.5599 17.25 11.5C17.25 10.4401 18.1087 9.58333 19.1667 9.58333H26.8333C27.8913 9.58333 28.75 10.4401 28.75 11.5ZM26.8333 19.1667H19.1667C18.1087 19.1667 17.25 20.0234 17.25 21.0833C17.25 22.1432 18.1087 23 19.1667 23H26.8333C27.8913 23 28.75 22.1432 28.75 21.0833C28.75 20.0234 27.8913 19.1667 26.8333 19.1667ZM23 42.1667H9.58333C6.41317 42.1667 3.83333 39.5868 3.83333 36.4167V9.58333C3.83333 6.41317 6.41317 3.83333 9.58333 3.83333H26.8333C30.0035 3.83333 32.5833 6.41317 32.5833 9.58333V20.125C32.5833 21.1849 33.442 22.0417 34.5 22.0417C35.558 22.0417 36.4167 21.1849 36.4167 20.125V9.58333C36.4167 4.29908 32.1176 0 26.8333 0H9.58333C4.29908 0 0 4.29908 0 9.58333V36.4167C0 41.7009 4.29908 46 9.58333 46H23C24.058 46 24.9167 45.1432 24.9167 44.0833C24.9167 43.0234 24.058 42.1667 23 42.1667ZM46 31.625C46 36.7042 40.0315 42.9027 37.1412 45.1068C36.3649 45.701 35.4315 45.9981 34.5 45.9981C33.5685 45.9981 32.6351 45.701 31.8588 45.1068C28.9685 42.9027 23 36.7042 23 31.625C23 27.9258 26.0092 24.9167 29.7083 24.9167C31.5847 24.9167 33.281 25.6891 34.5 26.9349C35.719 25.691 37.4152 24.9167 39.2917 24.9167C42.9908 24.9167 46 27.9258 46 31.625ZM42.1667 31.625C42.1667 30.0399 40.8768 28.75 39.2917 28.75C37.7066 28.75 36.4167 30.0399 36.4167 31.625C36.4167 32.6849 35.558 33.5417 34.5 33.5417C33.442 33.5417 32.5833 32.6849 32.5833 31.625C32.5833 30.0399 31.2934 28.75 29.7083 28.75C28.1232 28.75 26.8333 30.0399 26.8333 31.625C26.8333 34.8392 31.5445 40.0487 34.1837 42.0593C34.3716 42.2012 34.6303 42.2012 34.8162 42.0593C37.4555 40.0468 42.1667 34.8373 42.1667 31.625ZM10.5417 8.625C8.95467 8.625 7.66667 9.913 7.66667 11.5C7.66667 13.087 8.95467 14.375 10.5417 14.375C12.1287 14.375 13.4167 13.087 13.4167 11.5C13.4167 9.913 12.1287 8.625 10.5417 8.625ZM10.5417 27.7917C8.95467 27.7917 7.66667 29.0797 7.66667 30.6667C7.66667 32.2537 8.95467 33.5417 10.5417 33.5417C12.1287 33.5417 13.4167 32.2537 13.4167 30.6667C13.4167 29.0797 12.1287 27.7917 10.5417 27.7917ZM10.5417 18.2083C8.95467 18.2083 7.66667 19.4963 7.66667 21.0833C7.66667 22.6703 8.95467 23.9583 10.5417 23.9583C12.1287 23.9583 13.4167 22.6703 13.4167 21.0833C13.4167 19.4963 12.1287 18.2083 10.5417 18.2083Z" fill="#FF6535"/>
</g>
<defs>
<clipPath id="clip0_161_55">
<rect width="46" height="46" fill="white"/>
</clipPath>
</defs>
</svg>
