<svg width="28" height="28" viewBox="0 0 28 28" fill="none" xmlns="http://www.w3.org/2000/svg">
<g clip-path="url(#clip0_348_1649)">
<path d="M17.5 7C17.5 7.64517 16.9773 8.16667 16.3333 8.16667H11.6667C11.0227 8.16667 10.5 7.64517 10.5 7C10.5 6.35483 11.0227 5.83333 11.6667 5.83333H16.3333C16.9773 5.83333 17.5 6.35483 17.5 7ZM16.3333 11.6667H11.6667C11.0227 11.6667 10.5 12.1882 10.5 12.8333C10.5 13.4785 11.0227 14 11.6667 14H16.3333C16.9773 14 17.5 13.4785 17.5 12.8333C17.5 12.1882 16.9773 11.6667 16.3333 11.6667ZM14 25.6667H5.83333C3.90367 25.6667 2.33333 24.0963 2.33333 22.1667V5.83333C2.33333 3.90367 3.90367 2.33333 5.83333 2.33333H16.3333C18.263 2.33333 19.8333 3.90367 19.8333 5.83333V12.25C19.8333 12.8952 20.356 13.4167 21 13.4167C21.644 13.4167 22.1667 12.8952 22.1667 12.25V5.83333C22.1667 2.61683 19.5498 0 16.3333 0H5.83333C2.61683 0 0 2.61683 0 5.83333V22.1667C0 25.3832 2.61683 28 5.83333 28H14C14.644 28 15.1667 27.4785 15.1667 26.8333C15.1667 26.1882 14.644 25.6667 14 25.6667ZM28 19.25C28 22.3417 24.367 26.1147 22.6077 27.4563C22.1352 27.818 21.567 27.9988 21 27.9988C20.433 27.9988 19.8648 27.818 19.3923 27.4563C17.633 26.1147 14 22.3417 14 19.25C14 16.9983 15.8317 15.1667 18.0833 15.1667C19.2255 15.1667 20.258 15.6368 21 16.3952C21.742 15.638 22.7745 15.1667 23.9167 15.1667C26.1683 15.1667 28 16.9983 28 19.25ZM25.6667 19.25C25.6667 18.2852 24.8815 17.5 23.9167 17.5C22.9518 17.5 22.1667 18.2852 22.1667 19.25C22.1667 19.8952 21.644 20.4167 21 20.4167C20.356 20.4167 19.8333 19.8952 19.8333 19.25C19.8333 18.2852 19.0482 17.5 18.0833 17.5C17.1185 17.5 16.3333 18.2852 16.3333 19.25C16.3333 21.2065 19.201 24.3775 20.8075 25.6013C20.9218 25.6877 21.0793 25.6877 21.1925 25.6013C22.799 24.3763 25.6667 21.2053 25.6667 19.25ZM6.41667 5.25C5.45067 5.25 4.66667 6.034 4.66667 7C4.66667 7.966 5.45067 8.75 6.41667 8.75C7.38267 8.75 8.16667 7.966 8.16667 7C8.16667 6.034 7.38267 5.25 6.41667 5.25ZM6.41667 16.9167C5.45067 16.9167 4.66667 17.7007 4.66667 18.6667C4.66667 19.6327 5.45067 20.4167 6.41667 20.4167C7.38267 20.4167 8.16667 19.6327 8.16667 18.6667C8.16667 17.7007 7.38267 16.9167 6.41667 16.9167ZM6.41667 11.0833C5.45067 11.0833 4.66667 11.8673 4.66667 12.8333C4.66667 13.7993 5.45067 14.5833 6.41667 14.5833C7.38267 14.5833 8.16667 13.7993 8.16667 12.8333C8.16667 11.8673 7.38267 11.0833 6.41667 11.0833Z" fill="#FF6535"/>
</g>
<defs>
<clipPath id="clip0_348_1649">
<rect width="28" height="28" fill="white"/>
</clipPath>
</defs>
</svg>
