<svg width="150" height="150" viewBox="0 0 150 150" fill="none" xmlns="http://www.w3.org/2000/svg">
<circle cx="75" cy="75" r="75" fill="#F9F6EE"/>
<path d="M47.1222 122V30.1521H78.1568C85.3324 30.1521 91.2224 31.3779 95.8267 33.8296C100.431 36.2513 103.84 39.585 106.052 43.8306C108.264 48.0762 109.371 52.9048 109.371 58.3164C109.371 63.728 108.264 68.5267 106.052 72.7125C103.84 76.8982 100.446 80.1871 95.8716 82.5789C91.2971 84.9409 85.452 86.1219 78.3362 86.1219H53.2215V76.076H77.9774C82.8807 76.076 86.8273 75.3585 89.8172 73.9233C92.8369 72.4882 95.0195 70.4551 96.3649 67.8241C97.7402 65.1631 98.4279 61.9939 98.4279 58.3164C98.4279 54.6389 97.7402 51.4248 96.3649 48.6741C94.9896 45.9235 92.792 43.8007 89.7723 42.3058C86.7526 40.781 82.7611 40.0185 77.798 40.0185H58.2444V122H47.1222ZM90.3553 80.7402L112.959 122H100.042L77.798 80.7402H90.3553Z" fill="#66B600"/>
</svg>
