<svg width="1920" height="1080" viewBox="0 0 1920 1080" fill="none" xmlns="http://www.w3.org/2000/svg">
<path fill-rule="evenodd" clip-rule="evenodd" d="M1084.22 418.128C1084.17 418.392 1084.12 418.656 1084.07 418.921C1082.87 425.258 1081.95 430.751 1081.29 435.569L1061.43 431.31C1062.2 427.907 1063.13 424.457 1064.24 420.966C1064.97 418.688 1065.61 416.345 1066.18 413.97L1084.22 418.128ZM1086.78 393.091C1086.75 398.409 1086.33 403.989 1085.56 409.792L1067.68 406.765C1068.6 401.6 1069.16 396.57 1069.44 392.077L1086.78 393.091ZM1082.94 367C1084.8 372.379 1085.96 378.289 1086.47 384.652L1069.63 384.832C1069.6 381.907 1069.41 379.748 1069.19 378.425C1068.75 375.794 1068.26 373.234 1067.61 370.65L1082.94 367ZM1059.06 461.179C1058.6 455.013 1058.76 448.589 1059.58 441.951L1079.92 444.358C1079.15 450.531 1079.11 456.35 1079.67 461.781L1079.68 461.785L1059.29 463.806C1059.2 462.936 1059.12 462.06 1059.06 461.179ZM1064.44 485.454C1063.11 482.022 1062.01 478.451 1061.13 474.751L1081.1 470.248C1081.26 470.957 1081.44 471.657 1081.63 472.35C1082.03 473.833 1082.49 475.281 1082.98 476.692C1083.18 477.259 1083.39 477.82 1083.6 478.376C1084.1 479.648 1084.56 480.933 1085.01 482.23C1085.39 483.332 1085.75 484.443 1086.09 485.565C1086.36 486.425 1086.61 487.291 1086.85 488.163C1086.91 488.387 1086.98 488.611 1087.04 488.835L1067.24 493.986C1067.19 493.803 1067.14 493.621 1067.09 493.439C1066.33 490.71 1065.44 488.054 1064.44 485.454ZM1053.02 377.574C1052.84 376.481 1052.65 375.387 1052.43 374.287L1061.91 371.975C1062.19 373.346 1062.43 374.696 1062.65 376.026C1062.93 377.69 1063.12 379.663 1063.21 381.838C1063.33 384.471 1061.25 386.699 1058.56 386.815C1055.86 386.931 1053.59 384.891 1053.47 382.259C1053.38 380.327 1053.22 378.752 1053.02 377.574ZM1058.25 503.684C1060.94 503.445 1063.31 505.378 1063.56 508.002C1063.94 512.051 1064.11 516.232 1064.06 520.576L1052.03 520.805C1049.26 520.858 1046.96 518.663 1046.91 515.902C1046.85 513.141 1049.06 510.86 1051.84 510.807L1054.01 510.766C1053.96 510.129 1053.91 509.497 1053.85 508.869C1053.6 506.245 1055.57 503.923 1058.25 503.684ZM1052.34 481.294C1054.65 480.427 1057.22 481.552 1058.09 483.806C1059.43 487.285 1060.62 490.933 1061.65 494.779L1051.09 497.923C1048.65 498.649 1046.08 497.273 1045.35 494.85C1044.62 492.427 1046.01 489.874 1048.45 489.148L1050.35 488.581C1050.15 488.031 1049.94 487.487 1049.74 486.947C1048.87 484.692 1050.03 482.161 1052.34 481.294ZM1054.22 466.047C1053.74 464.142 1051.75 462.986 1049.78 463.466C1047.81 463.946 1046.6 465.878 1047.09 467.783C1047.2 468.239 1047.32 468.699 1047.43 469.162L1045.82 469.438C1043.75 469.791 1042.37 471.721 1042.72 473.748C1043.08 475.776 1045.04 477.133 1047.1 476.781L1056.03 475.252C1055.57 472.047 1054.97 468.985 1054.22 466.047ZM1049.27 446.629C1051.14 446.551 1052.73 447.957 1052.82 449.768C1052.96 452.563 1052.94 455.442 1052.77 458.425L1044.41 458.193C1042.47 458.14 1040.95 456.557 1041 454.658C1041.05 452.759 1042.66 451.263 1044.59 451.317L1046.1 451.358C1046.08 450.919 1046.07 450.483 1046.04 450.05C1045.95 448.238 1047.4 446.707 1049.27 446.629ZM1054.98 432.777C1055.17 430.822 1053.69 429.066 1051.67 428.855C1049.66 428.643 1047.86 430.057 1047.67 432.013C1047.63 432.481 1047.57 432.951 1047.52 433.424L1045.91 433.142C1043.85 432.78 1041.89 434.131 1041.53 436.158C1041.18 438.185 1042.56 440.122 1044.62 440.483L1053.54 442.047C1054.21 438.877 1054.68 435.794 1054.98 432.777ZM1057.08 411.197C1059.2 411.733 1060.5 413.833 1059.99 415.887C1059.2 419.056 1058.21 422.269 1057.01 425.545L1047.75 422.502C1045.61 421.799 1044.44 419.523 1045.13 417.417C1045.83 415.312 1048.13 414.175 1050.27 414.878L1051.94 415.426C1052.07 414.931 1052.2 414.438 1052.32 413.946C1052.83 411.892 1054.96 410.661 1057.08 411.197ZM1063.23 394.505C1063.36 392.241 1061.57 390.286 1059.24 390.137C1056.9 389.989 1054.9 391.704 1054.77 393.967C1054.74 394.509 1054.71 395.053 1054.67 395.601L1052.8 395.351C1050.41 395.032 1048.21 396.681 1047.9 399.035C1047.58 401.389 1049.27 403.556 1051.66 403.876L1062.02 405.259C1062.63 401.573 1063.03 397.996 1063.23 394.505ZM1045.79 536.726C1046.36 533.462 1049.48 531.276 1052.77 531.844L1054.01 532.059C1054.68 529.967 1056.77 528.538 1059.09 528.738C1061.78 528.969 1063.76 531.284 1063.52 533.909C1063.3 536.397 1063.02 538.939 1062.68 541.541C1062.62 541.997 1062.56 542.453 1062.49 542.91H1054.01C1049.62 542.91 1047.53 542.41 1046.6 540.91C1045.85 539.705 1045.52 538.232 1045.79 536.726Z" fill="#66B600"/>
<path d="M1070.12 530.272C1069.91 533.095 1069.61 536.017 1069.22 539.047C1069.19 539.249 1069.17 539.452 1069.14 539.655C1068.99 540.775 1068.85 541.857 1068.7 542.91H1092.5C1092.5 539.108 1092.43 535.409 1092.3 531.869L1070.12 530.272Z" fill="#66B600"/>
<path d="M1069.15 502.772C1070.03 508.022 1070.5 513.637 1070.51 519.74C1070.51 520.146 1070.51 520.555 1070.51 520.967L1091.73 521.11C1091.03 511.055 1090.01 503.254 1089.38 499.554L1069.15 502.772Z" fill="#66B600"/>
<path fill-rule="evenodd" clip-rule="evenodd" d="M1155.99 373.56V395.16H1206.87V543H1230.63V395.16H1281.51V373.56H1155.99ZM1462.6 373.56H1357.48V543H1465V521.16H1381.24V468.36H1448.68V446.76H1381.24V395.16H1462.6V373.56Z" fill="black"/>
<path fill-rule="evenodd" clip-rule="evenodd" d="M456 543H479.76V475.8H515.76L548.4 543H575.52L540.72 473.64C561.84 466.2 576.96 449.4 576.96 425.16C576.96 394.44 553.2 373.56 523.92 373.56H456V543ZM479.76 395.16H521.52C537.36 395.16 552.24 406.44 552.24 424.44C552.24 444.12 537.36 455.64 521.52 455.64H479.76V395.16ZM660.562 373.56H765.682V395.16H684.323V446.76H751.763V468.36H684.323V521.16H768.083V543H660.562V373.56ZM891.16 543L828.76 373.56H855.16L904.6 508.2L954.04 373.56H980.44L918.04 543H891.16Z" fill="black"/>
<path fill-rule="evenodd" clip-rule="evenodd" d="M636.035 649.44C629.755 649.44 625.475 645.92 625.475 640.2H630.155C630.155 643.32 632.715 645.08 635.995 645.08C638.995 645.08 641.515 643.48 641.515 640.92C641.515 638.154 638.586 637.457 635.275 636.669L635.155 636.64C630.875 635.6 625.955 634.4 625.955 628.64C625.955 623.6 629.795 620.6 635.755 620.6C641.835 620.6 645.435 623.92 645.435 629.2H640.875C640.875 626.4 638.555 624.88 635.635 624.88C632.835 624.88 630.555 626.16 630.555 628.44C630.555 631.026 633.404 631.713 636.702 632.507L636.755 632.52L636.815 632.535C641.162 633.612 646.235 634.868 646.235 640.88C646.235 646.48 641.715 649.44 636.035 649.44ZM669.385 625.32V621H648.385V625.32H656.585V649H661.185V625.32H669.385ZM669.871 649V643.92H674.711V649H669.871ZM618.198 694.92H608.278C616.038 686.24 617.398 683.4 617.398 679.88C617.398 675.2 613.958 671.92 609.038 671.92C603.958 671.92 600.558 675.16 600.558 679.92V680.56H604.878V679.96C604.878 677.6 606.558 676 609.038 676C611.438 676 613.038 677.56 613.038 679.92C613.038 682.96 611.638 685.16 599.998 697.84V699H618.198V694.92ZM632.565 699.48C626.125 699.48 622.045 694.16 622.045 685.68C622.045 677.2 626.085 671.92 632.565 671.92C639.045 671.92 643.045 677.2 643.045 685.68C643.045 694.16 639.005 699.48 632.565 699.48ZM632.565 695.44C636.405 695.44 638.685 691.88 638.685 685.72C638.685 679.56 636.405 676 632.565 676C628.725 676 626.405 679.56 626.405 685.68C626.405 691.84 628.685 695.44 632.565 695.44ZM664.682 694.92H654.762C662.522 686.24 663.882 683.4 663.882 679.88C663.882 675.2 660.442 671.92 655.522 671.92C650.442 671.92 647.042 675.16 647.042 679.92V680.56H651.362V679.96C651.362 677.6 653.042 676 655.522 676C657.922 676 659.522 677.56 659.522 679.92C659.522 682.96 658.122 685.16 646.482 697.84V699H664.682V694.92ZM676.608 672.4H667.648V676.32H672.368V699H676.608V672.4ZM621.768 644.68H609.648V636.84H620.288V632.64H609.648V625.32H621.328V621H605.088V649H621.768V644.68Z" fill="black"/>
<line x1="737.5" y1="621" x2="737.5" y2="699" stroke="black" stroke-width="3"/>
<path fill-rule="evenodd" clip-rule="evenodd" d="M1220.82 635.04C1220.82 643.28 1226.94 649.48 1235.38 649.48C1243.86 649.48 1249.98 643.28 1249.98 635.04C1249.98 626.76 1243.86 620.56 1235.38 620.56C1226.94 620.56 1220.82 626.76 1220.82 635.04ZM1247.14 635.04C1247.14 641.72 1242.18 646.72 1235.38 646.72C1228.62 646.72 1223.66 641.68 1223.66 635.04C1223.66 628.36 1228.62 623.32 1235.38 623.32C1242.18 623.32 1247.14 628.32 1247.14 635.04ZM1286.63 649.48C1278.19 649.48 1272.07 643.28 1272.07 635.04C1272.07 626.76 1278.19 620.56 1286.63 620.56C1295.11 620.56 1301.23 626.76 1301.23 635.04C1301.23 643.28 1295.11 649.48 1286.63 649.48ZM1286.63 646.72C1293.43 646.72 1298.39 641.72 1298.39 635.04C1298.39 628.32 1293.43 623.32 1286.63 623.32C1279.87 623.32 1274.91 628.36 1274.91 635.04C1274.91 641.68 1279.87 646.72 1286.63 646.72ZM1270.78 621V623.64H1258.78V649H1255.98V621H1270.78ZM1212.04 621H1214.84V649H1212.04V635.88H1196.44V649H1193.64V621H1196.44V633.2H1212.04V621ZM1187.26 641.36C1187.26 638.2 1185.5 635.48 1182.78 634.44C1185.02 633.28 1186.5 630.68 1186.5 628.04C1186.5 624.08 1183.3 621.04 1178.78 621.04H1167.86V649.04H1178.9C1183.74 649.04 1187.26 645.64 1187.26 641.36ZM1170.62 623.76H1178.82C1181.5 623.76 1183.66 625.8 1183.66 628.4C1183.66 630.96 1181.58 633.08 1178.9 633.08H1170.62V623.76ZM1184.38 641.04C1184.38 644 1182.02 646.24 1178.94 646.24H1170.62V635.84H1179.02C1182.06 635.84 1184.38 638.12 1184.38 641.04ZM1157.89 621H1159.89V649H1157.09V626.4L1140.33 649H1138.37V621H1141.17V643.52L1157.89 621ZM1133.53 623.64V621H1113.29V623.64H1122.01V649H1124.81V623.64H1133.53ZM1111.18 649L1108.18 641.88H1094.1L1091.14 649H1088.14L1099.74 621H1102.34L1114.22 649H1111.18ZM1101.06 624.92L1095.14 639.28H1107.1L1101.06 624.92ZM1087.95 629.8C1087.95 624.76 1084.03 621 1078.83 621H1068.99V649H1071.79V638.6H1078.83C1084.07 638.6 1087.95 634.84 1087.95 629.8ZM1085.11 629.8C1085.11 633.28 1082.39 635.88 1078.71 635.88H1071.79V623.72H1078.71C1082.39 623.72 1085.11 626.32 1085.11 629.8ZM1064.18 621V623.64H1052.18V649H1049.38V621H1064.18ZM1043.47 646.32H1030.23V635.84H1041.99V633.24H1030.23V623.68H1043.03V621H1027.43V649H1043.47V646.32ZM1022.6 621V623.64H1013.88V649H1011.08V623.64H1002.36V621H1022.6ZM997.536 621H994.736V633.2H979.136V621H976.336V649H979.136V635.88H994.736V649H997.536V621ZM966.364 621H968.364V649H965.564V626.4L948.804 649H946.844V621H949.644V643.52L966.364 621ZM932.132 629.8C932.132 624.76 928.212 621 923.012 621H913.172V649H915.972V638.6H923.012C928.252 638.6 932.132 634.84 932.132 629.8ZM929.292 629.8C929.292 633.28 926.572 635.88 922.892 635.88H915.972V623.72H922.892C926.572 623.72 929.292 626.32 929.292 629.8ZM908.34 621V623.64H899.62V649H896.82V623.64H888.1V621H908.34ZM883.278 621H880.478V633.2H864.878V621H862.078V649H864.878V635.88H880.478V649H883.278V621ZM842.925 646.32H856.165V649H840.125V621H855.725V623.68H842.925V633.24H854.685V635.84H842.925V646.32ZM834.448 646.4H831.488V621H828.688V646.4H814.487V621H811.688V649H831.848V654.84H834.448V646.4Z" fill="black"/>
<path fill-rule="evenodd" clip-rule="evenodd" d="M1011.7 685.04C1011.7 693.28 1017.82 699.48 1026.26 699.48C1034.74 699.48 1040.86 693.28 1040.86 685.04C1040.86 676.76 1034.74 670.56 1026.26 670.56C1017.82 670.56 1011.7 676.76 1011.7 685.04ZM1038.02 685.04C1038.02 691.72 1033.06 696.72 1026.26 696.72C1019.5 696.72 1014.54 691.68 1014.54 685.04C1014.54 678.36 1019.5 673.32 1026.26 673.32C1033.06 673.32 1038.02 678.32 1038.02 685.04ZM1058.91 684.16C1061.43 685.32 1063.15 688.04 1063.15 691.2C1063.15 695.96 1059.15 699.44 1053.71 699.44C1048.47 699.44 1044.67 696.12 1044.35 691.36H1047.11C1047.47 694.6 1050.11 696.8 1053.71 696.8C1057.55 696.8 1060.35 694.44 1060.35 691.08C1060.35 687.84 1057.99 685.48 1054.79 685.48H1051.35V683H1054.79C1057.71 683 1059.79 680.96 1059.79 678.16C1059.79 675.16 1057.31 673.12 1053.71 673.12C1050.51 673.12 1048.03 675.12 1047.55 677.96H1044.87C1045.31 673.6 1048.99 670.56 1053.71 670.56C1058.83 670.56 1062.51 673.68 1062.51 678.08C1062.51 680.76 1061.07 683.12 1058.91 684.16ZM1107.86 699.48C1099.42 699.48 1093.3 693.28 1093.3 685.04C1093.3 676.76 1099.42 670.56 1107.86 670.56C1116.34 670.56 1122.46 676.76 1122.46 685.04C1122.46 693.28 1116.34 699.48 1107.86 699.48ZM1107.86 696.72C1114.66 696.72 1119.62 691.72 1119.62 685.04C1119.62 678.32 1114.66 673.32 1107.86 673.32C1101.1 673.32 1096.14 678.36 1096.14 685.04C1096.14 691.68 1101.1 696.72 1107.86 696.72ZM1170.2 699.48C1161.76 699.48 1155.64 693.28 1155.64 685.04C1155.64 676.76 1161.76 670.56 1170.2 670.56C1178.68 670.56 1184.8 676.76 1184.8 685.04C1184.8 693.28 1178.68 699.48 1170.2 699.48ZM1170.2 696.72C1177 696.72 1181.96 691.72 1181.96 685.04C1181.96 678.32 1177 673.32 1170.2 673.32C1163.44 673.32 1158.48 678.36 1158.48 685.04C1158.48 691.68 1163.44 696.72 1170.2 696.72ZM1208.21 671H1205.37V684.72C1202.89 685.72 1200.69 686.24 1198.81 686.24C1194.21 686.24 1191.65 683.64 1191.65 679V671H1188.81V679.2C1188.81 685.48 1192.77 688.96 1198.53 688.96C1200.65 688.96 1202.93 688.52 1205.37 687.56V699H1208.21V671ZM1234.56 671H1237.36V699H1234.56V685.88H1218.96V699H1216.16V671H1218.96V683.2H1234.56V671ZM1266.82 671H1264.82L1248.1 693.52V671H1245.3V699H1247.26L1264.02 676.4V699H1266.82V671ZM1274.79 699V671H1277.59V699H1274.79ZM1281.95 684.48L1295.39 699H1291.59L1278.39 684.72V684.32L1290.67 671H1294.35L1281.95 684.48ZM1319.05 699L1316.05 691.88H1301.97L1299.01 699H1296.01L1307.61 671H1310.21L1322.09 699H1319.05ZM1308.93 674.92L1303.01 689.28H1314.97L1308.93 674.92ZM1149.66 671H1146.86V683.2H1131.26V671H1128.46V699H1131.26V685.88H1146.86V699H1149.66V671ZM1088.88 691.36C1088.88 688.2 1087.12 685.48 1084.4 684.44C1086.64 683.28 1088.12 680.68 1088.12 678.04C1088.12 674.08 1084.92 671.04 1080.4 671.04H1069.48V699.04H1080.52C1085.36 699.04 1088.88 695.64 1088.88 691.36ZM1072.24 673.76H1080.44C1083.12 673.76 1085.28 675.8 1085.28 678.4C1085.28 680.96 1083.2 683.08 1080.52 683.08H1072.24V673.76ZM1086 691.04C1086 694 1083.64 696.24 1080.56 696.24H1072.24V685.84H1080.64C1083.68 685.84 1086 688.12 1086 691.04ZM985.689 671H1005.69V699H1002.85V673.64H988.489V699H985.689V671ZM967.045 671H956.445C951.285 671 947.485 674.6 947.485 679.4C947.485 683.44 950.205 686.56 954.285 687.44L947.205 699H950.525L957.325 687.72H964.205V699H967.045V671ZM964.205 685.08H956.565C952.925 685.08 950.325 682.72 950.325 679.4C950.325 676.04 952.965 673.68 956.565 673.68H964.205V685.08ZM939.272 671H941.272V699H938.472V676.4L921.712 699H919.752V671H922.552V693.52L939.272 671ZM911.811 671H909.011V683.2H893.411V671H890.611V699H893.411V685.88H909.011V699H911.811V671ZM871.458 696.32H884.698V699H868.658V671H884.258V673.68H871.458V683.24H883.218V685.84H871.458V696.32ZM860.707 671H857.867V684.72C855.387 685.72 853.187 686.24 851.307 686.24C846.707 686.24 844.147 683.64 844.147 679V671H841.307V679.2C841.307 685.48 845.267 688.96 851.027 688.96C853.147 688.96 855.427 688.52 857.867 687.56V699H860.707V671ZM824.154 696.32H837.394V699H821.354V671H836.954V673.68H824.154V683.24H835.914V685.84H824.154V696.32ZM813.378 671H796.458L794.858 690.64C794.538 694.44 792.818 696.28 789.618 696.28H788.658V699.04H789.658C794.538 699.04 797.258 696.2 797.698 690.56L799.058 673.64H810.578V699H813.378V671Z" fill="black"/>
</svg>
